<?xml version="1.0" encoding="utf-8"?>
<!DOCTYPE svg PUBLIC "-//W3C//DTD SVG 1.0//EN" "http://www.w3.org/TR/2001/REC-SVG-20010904/DTD/svg10.dtd">
<svg style="background:transparent" version="1.0" xmlns="http://www.w3.org/2000/svg" width="100%" height="100%" viewBox="1100 3000 4700 2600" preserveAspectRatio="xMidYMid meet">
 <g fill="#ffffff">
  <path d="M5228.12 5118.51 c-21.63 -11.93 -35.05 -34.30 -117.08 -202.09 -50.71 -104.40 -92.47 -190.90 -92.47 -192.39 0 -1.49 -41.01 -85.76 -90.98 -187.92 -75.32 -155.11 -90.98 -191.65 -93.96 -228.19 -5.22 -65.62 -8.20 -64.88 155.85 -64.88 l140.94 0 21.63 20.88 c12.68 11.93 44.74 69.35 77.55 139.45 31.32 65.62 88.74 186.43 127.52 267.71 l71.59 148.39 46.98 -4.47 c126.02 -11.93 322.14 -94.70 419.83 -175.99 73.82 -61.15 146.16 -154.36 190.15 -243.10 140.19 -285.60 85.76 -604.77 -142.43 -837.42 -68.60 -69.35 -130.50 -112.60 -217 -153.61 -146.90 -68.60 -183.44 -71.59 -846.37 -71.59 -509.32 0 -545.85 -0.75 -557.04 -12.68 -5.97 -7.46 -33.56 -60.40 -60.40 -118.57 -35.79 -76.06 -49.22 -113.35 -49.22 -135.72 0 -58.91 -45.49 -55.18 672.62 -51.45 690.52 2.98 706.93 4.47 854.58 46.98 173 49.96 300.52 126.02 434.74 259.50 134.23 133.48 223.71 290.82 272.93 480.98 20.13 76.06 20.88 85.01 20.88 269.20 0 184.93 -0.75 192.39 -20.88 272.18 -103.65 399.70 -397.46 673.37 -821.76 764.35 -105.89 23.12 -360.92 29.08 -398.21 10.44z"/>
  <path d="M1901.54 4595.77 c-21.63 -26.85 -280.38 -557.04 -662.93 -1361.65 -66.37 -139.45 -73.82 -177.48 -41.01 -209.54 17.90 -18.64 249.81 -17.15 285.60 1.49 30.57 15.66 23.86 2.24 181.95 337.06 70.84 149.89 190.90 400.44 266.22 557.04 l137.21 285.60 112.60 -225.95 111.86 -225.20 37.29 0 37.29 0 61.15 123.04 c87.99 178.97 92.47 149.89 -61.15 462.34 -67.11 137.21 -129.01 257.27 -137.21 266.96 -14.17 15.66 -18.64 16.41 -160.33 16.41 l-145.41 0 -23.12 -27.59z"/>
  <path d="M2927.63 4604.72 c-11.19 -10.44 -38.78 -56.67 -60.40 -102.91 -105.14 -222.22 -271.44 -570.46 -346.01 -723.33 -85.76 -175.24 -93.96 -202.09 -70.84 -234.90 11.19 -15.66 14.91 -16.41 158.83 -16.41 134.23 0 148.39 1.49 160.33 13.42 10.44 11.93 93.96 185.68 294.55 609.24 17.90 37.29 63.38 132.74 102.16 213.27 66.37 137.96 70.10 148.39 70.10 193.88 0 27.59 -3.73 52.20 -8.95 57.42 -5.97 5.97 -49.22 8.95 -144.67 8.95 -134.23 0 -134.97 0 -155.11 -18.64z"/>
  <path d="M3433.96 4598.01 c-16.41 -22.37 -272.93 -549.58 -466.06 -958.97 -140.94 -299.77 -196.87 -417.59 -277.40 -585.38 -211.78 -441.46 -210.29 -437.73 -213.27 -481.72 -4.47 -56.67 6.71 -66.37 70.84 -66.37 58.91 0 224.46 20.88 242.35 30.57 7.46 3.73 18.64 17.90 26.10 31.32 14.17 27.59 180.46 369.12 207.31 425.80 9.69 20.88 70.10 146.90 134.23 280.38 64.13 133.48 190.90 398.21 281.13 587.61 l165.55 346.01 107.38 -215.51 c58.91 -117.82 112.60 -220.73 119.31 -227.44 13.42 -15.66 62.64 -17.90 74.57 -3.73 3.73 4.47 32.81 64.13 64.13 131.99 46.98 101.42 56.67 129.75 56.67 160.33 0 32.81 -14.17 65.62 -123.79 290.82 -67.86 139.45 -130.50 259.50 -138.70 266.96 -13.42 11.19 -32.81 12.68 -163.31 12.68 l-147.65 0 -19.39 -25.35z"/>
  <path d="M4469 4605.46 c-11.93 -9.69 -25.35 -26.10 -29.83 -35.79 -5.22 -8.95 -111.86 -229.68 -237.13 -489.93 -148.39 -309.47 -227.44 -480.98 -227.44 -495.89 0 -13.42 5.22 -31.32 11.93 -40.27 11.19 -15.66 14.91 -16.41 158.83 -16.41 131.24 0 149.14 1.49 158.83 13.42 6.71 6.71 58.91 111.86 116.33 232.66 110.36 232.66 175.99 369.12 287.10 600.29 61.15 126.77 68.60 146.16 68.60 183.44 0 66.37 0.75 66.37 -152.87 66.37 -129.75 0 -133.48 -0.75 -154.36 -17.90z"/>
  <path d="M2332.56 3363.12 c-11.93 -8.95 -40.27 -62.64 -76.06 -141.68 -46.98 -105.14 -57.42 -133.48 -55.18 -158.83 1.49 -24.61 5.97 -32.81 20.88 -40.27 25.35 -12.68 264.72 -13.42 290.82 0 13.42 6.71 35.05 41.76 77.55 128.26 64.13 130.50 76.06 175.24 53.69 208.80 l-11.93 18.64 -140.94 0 c-128.26 0 -142.43 -1.49 -158.83 -14.91z"/>
  <path d="M3868.71 3360.88 c-11.93 -9.69 -34.30 -46.98 -53.69 -90.98 -17.90 -41.01 -43.25 -96.20 -55.93 -123.04 -29.08 -61.89 -31.32 -105.89 -5.22 -123.04 15.66 -10.44 40.27 -11.93 156.60 -9.69 126.77 2.24 139.45 3.73 152.12 17.15 8.20 8.20 38.78 67.11 68.60 130.50 59.66 127.52 71.59 175.99 48.47 201.34 -12.68 14.17 -23.86 14.91 -152.12 14.91 -132.74 0 -139.45 -0.75 -158.83 -17.15z"/>
 </g>
 
</svg>